<svg width="512" height="512" viewBox="0 0 512 512" fill="none" xmlns="http://www.w3.org/2000/svg">
<g clip-path="url(#clip0_2_4)">
<rect width="512" height="512" rx="80" fill="#0A0A0A"/>
<path d="M184.595 348V163.4H265.455C278.975 163.4 290.675 165.653 300.555 170.16C310.609 174.667 318.322 181.08 323.695 189.4C329.069 197.547 331.755 207.253 331.755 218.52C331.755 227.013 329.935 234.553 326.295 241.14C322.829 247.727 317.975 253.1 311.735 257.26C305.669 261.42 298.649 264.02 290.675 265.06L289.895 262.72C302.202 262.72 311.562 265.407 317.975 270.78C324.389 275.98 328.029 284.04 328.895 294.96L333.575 348H293.275L289.895 301.2C289.375 294.093 287.122 288.893 283.135 285.6C279.322 282.133 272.735 280.4 263.375 280.4H224.115V348H184.595ZM224.115 247.38H261.035C270.569 247.38 277.935 245.213 283.135 240.88C288.509 236.373 291.195 230.047 291.195 221.9C291.195 213.58 288.509 207.34 283.135 203.18C277.762 198.847 269.962 196.68 259.735 196.68H224.115V247.38Z" fill="white"/>
</g>
<defs>
<clipPath id="clip0_2_4">
<rect width="512" height="512" rx="80" fill="white"/>
</clipPath>
</defs>
</svg>
