<svg width="1200" height="630" viewBox="0 0 1200 630" fill="none" xmlns="http://www.w3.org/2000/svg">
<rect width="1200" height="630" fill="#1E1E1E"/>
<g clip-path="url(#clip0_0_1)">
<rect width="1200" height="630" transform="translate(0.00249999)" fill="#0A0A0A"/>
<path d="M77.7385 148V102.56H97.6425C100.971 102.56 103.851 103.115 106.283 104.224C108.757 105.333 110.656 106.912 111.979 108.96C113.301 110.965 113.963 113.355 113.963 116.128C113.963 118.219 113.515 120.075 112.619 121.696C111.765 123.317 110.571 124.64 109.035 125.664C107.541 126.688 105.813 127.328 103.851 127.584L103.659 127.008C106.688 127.008 108.992 127.669 110.571 128.992C112.149 130.272 113.045 132.256 113.259 134.944L114.411 148H104.491L103.659 136.48C103.531 134.731 102.976 133.451 101.995 132.64C101.056 131.787 99.4345 131.36 97.1305 131.36H87.4665V148H77.7385ZM87.4665 123.232H96.5545C98.9012 123.232 100.715 122.699 101.995 121.632C103.317 120.523 103.979 118.965 103.979 116.96C103.979 114.912 103.317 113.376 101.995 112.352C100.672 111.285 98.7518 110.752 96.2345 110.752H87.4665V123.232ZM118.219 148L134.603 102.56H146.123L162.507 148H152.395L149.067 138.336H131.595L128.267 148H118.219ZM134.347 130.336H146.379L140.363 112.8L134.347 130.336ZM166.864 148V102.56H198.224V110.752H171.216L176.592 105.184V125.984L171.216 121.76H197.072V129.824H171.216L176.592 125.6V148H166.864ZM196.531 148L212.915 102.56H224.435L240.819 148H230.707L227.379 138.336H209.907L206.579 148H196.531ZM212.659 130.336H224.691L218.675 112.8L212.659 130.336ZM245.176 148V102.56H255.928L273.976 133.92V102.56H283.704V148H272.824L254.904 117.728V148H245.176ZM292.301 148V102.56H307.981C315.362 102.56 321.037 104.544 325.005 108.512C328.973 112.437 330.957 118.048 330.957 125.344C330.957 132.597 328.994 138.187 325.069 142.112C321.186 146.037 315.618 148 308.365 148H292.301ZM302.029 139.808H307.981C312.376 139.808 315.618 138.635 317.709 136.288C319.842 133.899 320.909 130.229 320.909 125.28C320.909 120.331 319.842 116.683 317.709 114.336C315.618 111.947 312.376 110.752 307.981 110.752H302.029V139.808ZM337.364 148V102.56H347.092V148H337.364ZM371.114 148V102.56H381.866L399.914 133.92V102.56H409.642V148H398.762L380.842 117.728V148H371.114ZM438.21 149.024C433.602 149.024 429.634 148.064 426.306 146.144C423.02 144.224 420.482 141.493 418.69 137.952C416.94 134.411 416.066 130.208 416.066 125.344C416.066 120.48 416.94 116.277 418.69 112.736C420.482 109.152 423.02 106.4 426.306 104.48C429.634 102.517 433.602 101.536 438.21 101.536C442.818 101.536 446.764 102.517 450.05 104.48C453.378 106.4 455.916 109.152 457.666 112.736C459.458 116.277 460.354 120.48 460.354 125.344C460.354 130.208 459.458 134.411 457.666 137.952C455.916 141.493 453.378 144.224 450.05 146.144C446.764 148.064 442.818 149.024 438.21 149.024ZM438.146 140.832C440.706 140.832 442.882 140.235 444.674 139.04C446.508 137.803 447.895 136.032 448.834 133.728C449.815 131.424 450.306 128.629 450.306 125.344C450.306 122.059 449.815 119.264 448.834 116.96C447.895 114.613 446.508 112.821 444.674 111.584C442.882 110.347 440.706 109.728 438.146 109.728C435.628 109.728 433.474 110.347 431.682 111.584C429.89 112.821 428.503 114.613 427.522 116.96C426.583 119.264 426.114 122.059 426.114 125.344C426.114 128.629 426.583 131.424 427.522 133.728C428.503 136.032 429.89 137.803 431.682 139.04C433.516 140.235 435.671 140.832 438.146 140.832ZM477.478 148L461.094 102.56H471.142L483.238 137.056L495.334 102.56H505.382L488.934 148H477.478ZM500.469 148L516.853 102.56H528.373L544.757 148H534.645L531.317 138.336H513.845L510.517 148H500.469ZM516.597 130.336H528.629L522.613 112.8L516.597 130.336ZM565.301 148V102.56H596.661V110.752H569.653L575.029 105.184V125.984L569.653 121.76H595.509V129.824H569.653L575.029 125.6V148H565.301ZM603.051 148V102.56H612.779V148H603.051ZM629.962 148V110.752H616.394V102.56H653.386V110.752H639.754V148H629.962ZM657.551 148V102.56H677.455C680.783 102.56 683.663 103.115 686.095 104.224C688.57 105.333 690.468 106.912 691.791 108.96C693.114 110.965 693.775 113.355 693.775 116.128C693.775 118.219 693.327 120.075 692.431 121.696C691.578 123.317 690.383 124.64 688.847 125.664C687.354 126.688 685.626 127.328 683.663 127.584L683.471 127.008C686.5 127.008 688.804 127.669 690.383 128.992C691.962 130.272 692.858 132.256 693.071 134.944L694.223 148H684.303L683.471 136.48C683.343 134.731 682.788 133.451 681.807 132.64C680.868 131.787 679.247 131.36 676.943 131.36H667.279V148H657.551ZM667.279 123.232H676.367C678.714 123.232 680.527 122.699 681.807 121.632C683.13 120.523 683.791 118.965 683.791 116.96C683.791 114.912 683.13 113.376 681.807 112.352C680.484 111.285 678.564 110.752 676.047 110.752H667.279V123.232ZM698.031 148L714.415 102.56H725.935L742.319 148H732.207L728.879 138.336H711.407L708.079 148H698.031ZM714.159 130.336H726.191L720.175 112.8L714.159 130.336Z" fill="white"/>
<path d="M100.555 248V213.92H113.803C118.027 213.92 121.259 214.672 123.499 216.176C125.739 217.648 126.859 219.984 126.859 223.184C126.859 224.592 126.571 225.824 125.995 226.88C125.419 227.904 124.571 228.72 123.45 229.328C122.363 229.936 121.035 230.304 119.467 230.432V230.336C122.315 230.528 124.491 231.36 125.995 232.832C127.531 234.272 128.299 236.192 128.299 238.592C128.299 241.76 127.179 244.128 124.939 245.696C122.731 247.232 119.563 248 115.435 248H100.555ZM107.851 242.048H115.099C116.859 242.048 118.267 241.696 119.323 240.992C120.411 240.256 120.955 239.168 120.955 237.728C120.955 236.288 120.411 235.2 119.323 234.464C118.267 233.696 116.859 233.312 115.099 233.312H107.851V242.048ZM107.851 228.032H113.611C115.403 228.032 116.827 227.68 117.883 226.976C118.971 226.272 119.515 225.264 119.515 223.952C119.515 222.544 118.987 221.52 117.931 220.88C116.907 220.208 115.467 219.872 113.611 219.872H107.851V228.032ZM141.131 248.576C138.475 248.576 136.299 247.968 134.603 246.752C132.939 245.504 132.107 243.776 132.107 241.568C132.107 239.296 132.811 237.552 134.219 236.336C135.659 235.088 137.771 234.176 140.555 233.6L148.859 231.968C148.859 230.304 148.475 229.056 147.707 228.224C146.971 227.36 145.899 226.928 144.491 226.928C143.115 226.928 142.043 227.248 141.275 227.888C140.507 228.496 140.011 229.408 139.787 230.624L132.539 230.288C133.019 227.472 134.283 225.344 136.331 223.904C138.411 222.432 141.131 221.696 144.491 221.696C148.331 221.696 151.211 222.608 153.131 224.432C155.083 226.256 156.059 228.928 156.059 232.448V241.232C156.059 241.968 156.171 242.464 156.395 242.72C156.651 242.944 157.019 243.056 157.499 243.056H158.219V248C157.995 248.064 157.627 248.128 157.115 248.192C156.635 248.256 156.155 248.288 155.675 248.288C154.651 248.288 153.691 248.112 152.795 247.76C151.931 247.408 151.227 246.816 150.683 245.984C150.139 245.12 149.867 243.904 149.867 242.336L150.491 242.816C150.171 243.968 149.595 244.976 148.763 245.84C147.963 246.704 146.907 247.376 145.595 247.856C144.315 248.336 142.827 248.576 141.131 248.576ZM142.859 243.632C144.043 243.632 145.083 243.408 145.979 242.96C146.875 242.48 147.579 241.792 148.091 240.896C148.603 240 148.859 238.944 148.859 237.728V236.48L143.003 237.728C141.851 237.952 140.971 238.336 140.363 238.88C139.787 239.392 139.499 240.064 139.499 240.896C139.499 241.76 139.787 242.432 140.363 242.912C140.939 243.392 141.771 243.632 142.859 243.632ZM173.194 248.576C170.57 248.576 168.282 248.032 166.33 246.944C164.378 245.824 162.858 244.256 161.77 242.24C160.682 240.224 160.138 237.856 160.138 235.136C160.138 232.416 160.682 230.064 161.77 228.08C162.858 226.064 164.378 224.496 166.33 223.376C168.282 222.256 170.57 221.696 173.194 221.696C175.466 221.696 177.498 222.096 179.29 222.896C181.114 223.696 182.586 224.848 183.706 226.352C184.826 227.856 185.514 229.664 185.77 231.776L178.33 232.112C178.106 230.512 177.53 229.312 176.602 228.512C175.706 227.68 174.57 227.264 173.194 227.264C171.402 227.264 170.01 227.952 169.018 229.328C168.026 230.704 167.53 232.64 167.53 235.136C167.53 237.632 168.026 239.584 169.018 240.992C170.01 242.368 171.402 243.056 173.194 243.056C174.57 243.056 175.722 242.64 176.65 241.808C177.578 240.944 178.138 239.648 178.33 237.92L185.77 238.208C185.546 240.32 184.874 242.16 183.754 243.728C182.666 245.264 181.21 246.464 179.386 247.328C177.594 248.16 175.53 248.576 173.194 248.576ZM189.749 248V213.92H196.949V232.832L206.501 222.272H215.141L205.157 232.88L215.429 248H207.557L200.501 236.96L196.949 240.752V248H189.749ZM228.973 248.576C226.349 248.576 224.061 248.032 222.109 246.944C220.189 245.824 218.685 244.256 217.597 242.24C216.541 240.224 216.013 237.856 216.013 235.136C216.013 232.416 216.541 230.064 217.597 228.08C218.685 226.064 220.189 224.496 222.109 223.376C224.029 222.256 226.301 221.696 228.925 221.696C231.485 221.696 233.709 222.256 235.597 223.376C237.485 224.496 238.941 226.096 239.965 228.176C241.021 230.256 241.549 232.736 241.549 235.616V237.056H223.453C223.549 239.104 224.093 240.624 225.085 241.616C226.109 242.608 227.453 243.104 229.117 243.104C230.333 243.104 231.341 242.848 232.141 242.336C232.973 241.824 233.565 241.04 233.917 239.984L241.165 240.416C240.493 242.976 239.069 244.976 236.893 246.416C234.717 247.856 232.077 248.576 228.973 248.576ZM223.453 232.64H234.157C234.061 230.752 233.533 229.344 232.573 228.416C231.645 227.488 230.429 227.024 228.925 227.024C227.421 227.024 226.173 227.52 225.181 228.512C224.221 229.472 223.645 230.848 223.453 232.64ZM245.999 248V222.272H252.479L252.767 229.808L251.855 229.568C252.111 227.648 252.623 226.112 253.391 224.96C254.191 223.808 255.183 222.976 256.367 222.464C257.551 221.952 258.847 221.696 260.255 221.696C262.111 221.696 263.679 222.096 264.959 222.896C266.271 223.696 267.263 224.832 267.935 226.304C268.639 227.744 268.991 229.456 268.991 231.44V248H261.791V233.84C261.791 232.464 261.679 231.296 261.455 230.336C261.231 229.376 260.831 228.656 260.255 228.176C259.679 227.664 258.879 227.408 257.855 227.408C256.351 227.408 255.199 227.968 254.399 229.088C253.599 230.176 253.199 231.76 253.199 233.84V248H245.999ZM283.901 248.576C281.725 248.576 279.837 248.032 278.237 246.944C276.669 245.824 275.453 244.272 274.589 242.288C273.757 240.272 273.341 237.888 273.341 235.136C273.341 232.384 273.773 230.016 274.637 228.032C275.501 226.016 276.717 224.464 278.285 223.376C279.885 222.256 281.757 221.696 283.901 221.696C285.725 221.696 287.293 222.08 288.605 222.848C289.949 223.584 290.957 224.608 291.629 225.92V213.92H298.829V248H291.965L291.821 244.208C291.117 245.584 290.061 246.656 288.653 247.424C287.277 248.192 285.693 248.576 283.901 248.576ZM286.253 243.056C287.405 243.056 288.381 242.752 289.181 242.144C289.981 241.536 290.589 240.656 291.005 239.504C291.421 238.32 291.629 236.864 291.629 235.136C291.629 233.376 291.421 231.92 291.005 230.768C290.589 229.584 289.981 228.704 289.181 228.128C288.381 227.52 287.405 227.216 286.253 227.216C284.557 227.216 283.213 227.936 282.221 229.376C281.229 230.784 280.733 232.704 280.733 235.136C280.733 237.536 281.229 239.456 282.221 240.896C283.245 242.336 284.589 243.056 286.253 243.056ZM316.461 248V213.92H328.221C333.757 213.92 338.013 215.408 340.989 218.384C343.965 221.328 345.453 225.536 345.453 231.008C345.453 236.448 343.981 240.64 341.037 243.584C338.125 246.528 333.949 248 328.509 248H316.461ZM323.757 241.856H328.221C331.517 241.856 333.949 240.976 335.517 239.216C337.117 237.424 337.917 234.672 337.917 230.96C337.917 227.248 337.117 224.512 335.517 222.752C333.949 220.96 331.517 220.064 328.221 220.064H323.757V241.856ZM362.52 248.576C359.896 248.576 357.608 248.032 355.656 246.944C353.736 245.824 352.232 244.256 351.144 242.24C350.088 240.224 349.56 237.856 349.56 235.136C349.56 232.416 350.088 230.064 351.144 228.08C352.232 226.064 353.736 224.496 355.656 223.376C357.576 222.256 359.848 221.696 362.472 221.696C365.032 221.696 367.256 222.256 369.144 223.376C371.032 224.496 372.488 226.096 373.512 228.176C374.568 230.256 375.096 232.736 375.096 235.616V237.056H357C357.096 239.104 357.64 240.624 358.632 241.616C359.656 242.608 361 243.104 362.664 243.104C363.88 243.104 364.888 242.848 365.688 242.336C366.52 241.824 367.112 241.04 367.464 239.984L374.712 240.416C374.04 242.976 372.616 244.976 370.44 246.416C368.264 247.856 365.624 248.576 362.52 248.576ZM357 232.64H367.704C367.608 230.752 367.08 229.344 366.12 228.416C365.192 227.488 363.976 227.024 362.472 227.024C360.968 227.024 359.72 227.52 358.728 228.512C357.768 229.472 357.192 230.848 357 232.64ZM385.856 248L376.448 222.272H383.984L390.08 240.752L396.128 222.272H403.664L394.208 248H385.856ZM418.067 248.576C415.443 248.576 413.155 248.032 411.203 246.944C409.283 245.824 407.779 244.256 406.691 242.24C405.635 240.224 405.107 237.856 405.107 235.136C405.107 232.416 405.635 230.064 406.691 228.08C407.779 226.064 409.283 224.496 411.203 223.376C413.123 222.256 415.395 221.696 418.019 221.696C420.579 221.696 422.803 222.256 424.691 223.376C426.579 224.496 428.035 226.096 429.059 228.176C430.115 230.256 430.643 232.736 430.643 235.616V237.056H412.547C412.643 239.104 413.187 240.624 414.179 241.616C415.203 242.608 416.547 243.104 418.211 243.104C419.427 243.104 420.435 242.848 421.235 242.336C422.067 241.824 422.659 241.04 423.011 239.984L430.259 240.416C429.587 242.976 428.163 244.976 425.987 246.416C423.811 247.856 421.171 248.576 418.067 248.576ZM412.547 232.64H423.251C423.155 230.752 422.627 229.344 421.667 228.416C420.739 227.488 419.523 227.024 418.019 227.024C416.515 227.024 415.267 227.52 414.275 228.512C413.315 229.472 412.739 230.848 412.547 232.64ZM442.047 248C439.935 248 438.287 247.472 437.103 246.416C435.919 245.36 435.327 243.648 435.327 241.28V213.92H442.527V240.512C442.527 241.28 442.703 241.824 443.055 242.144C443.407 242.464 443.919 242.624 444.591 242.624H446.319V248H442.047ZM461.569 248.576C458.945 248.576 456.657 248.032 454.705 246.944C452.753 245.824 451.233 244.256 450.145 242.24C449.057 240.224 448.513 237.856 448.513 235.136C448.513 232.416 449.057 230.064 450.145 228.08C451.233 226.064 452.753 224.496 454.705 223.376C456.657 222.256 458.945 221.696 461.569 221.696C464.193 221.696 466.481 222.256 468.433 223.376C470.385 224.496 471.905 226.064 472.993 228.08C474.081 230.064 474.625 232.416 474.625 235.136C474.625 237.856 474.081 240.224 472.993 242.24C471.905 244.256 470.385 245.824 468.433 246.944C466.481 248.032 464.193 248.576 461.569 248.576ZM461.569 243.056C463.361 243.056 464.753 242.368 465.745 240.992C466.737 239.584 467.233 237.632 467.233 235.136C467.233 232.64 466.737 230.704 465.745 229.328C464.753 227.92 463.361 227.216 461.569 227.216C459.777 227.216 458.385 227.92 457.393 229.328C456.401 230.704 455.905 232.64 455.905 235.136C455.905 237.632 456.401 239.584 457.393 240.992C458.385 242.368 459.777 243.056 461.569 243.056ZM479.108 255.2V222.272H486.02L486.164 227.696L485.588 227.456C486.228 225.6 487.268 224.176 488.708 223.184C490.148 222.192 491.828 221.696 493.748 221.696C496.148 221.696 498.148 222.288 499.748 223.472C501.348 224.656 502.548 226.272 503.348 228.32C504.18 230.336 504.596 232.608 504.596 235.136C504.596 237.632 504.18 239.904 503.348 241.952C502.548 244 501.332 245.616 499.7 246.8C498.1 247.984 496.1 248.576 493.7 248.576C492.452 248.576 491.284 248.352 490.196 247.904C489.108 247.424 488.164 246.768 487.364 245.936C486.596 245.104 486.036 244.112 485.684 242.96L486.308 242.576V255.2H479.108ZM491.732 243.056C493.428 243.056 494.756 242.352 495.716 240.944C496.708 239.536 497.204 237.6 497.204 235.136C497.204 232.672 496.708 230.736 495.716 229.328C494.756 227.92 493.428 227.216 491.732 227.216C490.612 227.216 489.636 227.52 488.804 228.128C488.004 228.704 487.38 229.584 486.932 230.768C486.516 231.952 486.308 233.408 486.308 235.136C486.308 236.864 486.516 238.32 486.932 239.504C487.38 240.688 488.004 241.584 488.804 242.192C489.636 242.768 490.612 243.056 491.732 243.056ZM520.629 248.576C518.005 248.576 515.717 248.032 513.765 246.944C511.845 245.824 510.341 244.256 509.253 242.24C508.197 240.224 507.669 237.856 507.669 235.136C507.669 232.416 508.197 230.064 509.253 228.08C510.341 226.064 511.845 224.496 513.765 223.376C515.685 222.256 517.957 221.696 520.581 221.696C523.141 221.696 525.365 222.256 527.253 223.376C529.141 224.496 530.597 226.096 531.621 228.176C532.677 230.256 533.205 232.736 533.205 235.616V237.056H515.109C515.205 239.104 515.749 240.624 516.741 241.616C517.765 242.608 519.109 243.104 520.773 243.104C521.989 243.104 522.997 242.848 523.797 242.336C524.629 241.824 525.221 241.04 525.573 239.984L532.821 240.416C532.149 242.976 530.725 244.976 528.549 246.416C526.373 247.856 523.733 248.576 520.629 248.576ZM515.109 232.64H525.813C525.717 230.752 525.189 229.344 524.229 228.416C523.301 227.488 522.085 227.024 520.581 227.024C519.077 227.024 517.829 227.52 516.837 228.512C515.877 229.472 515.301 230.848 515.109 232.64ZM537.655 248V222.272H544.471L544.711 229.76L544.183 229.616C544.599 227.024 545.335 225.152 546.391 224C547.447 222.848 548.903 222.272 550.759 222.272H553.111V228.224H550.759C549.415 228.224 548.311 228.4 547.447 228.752C546.583 229.104 545.927 229.664 545.479 230.432C545.063 231.2 544.855 232.24 544.855 233.552V248H537.655ZM100.555 310V275.92H124.075V282.064H103.819L107.851 277.888V293.488L103.819 290.32H123.211V296.368H103.819L107.851 293.2V310H100.555ZM136.134 310.576C133.478 310.576 131.398 309.728 129.894 308.032C128.422 306.304 127.686 303.904 127.686 300.832V284.272H134.886V299.152C134.886 301.136 135.19 302.592 135.798 303.52C136.406 304.416 137.366 304.864 138.678 304.864C140.15 304.864 141.286 304.368 142.086 303.376C142.918 302.352 143.334 300.832 143.334 298.816V284.272H150.534V310H143.958L143.766 302.608L144.678 302.8C144.294 305.36 143.382 307.296 141.942 308.608C140.502 309.92 138.566 310.576 136.134 310.576ZM163.562 310C161.45 310 159.802 309.472 158.618 308.416C157.434 307.36 156.842 305.648 156.842 303.28V275.92H164.042V302.512C164.042 303.28 164.218 303.824 164.57 304.144C164.922 304.464 165.434 304.624 166.106 304.624H167.834V310H163.562ZM178.141 310C176.029 310 174.381 309.472 173.197 308.416C172.013 307.36 171.42 305.648 171.42 303.28V275.92H178.621V302.512C178.621 303.28 178.797 303.824 179.149 304.144C179.501 304.464 180.013 304.624 180.685 304.624H182.413V310H178.141ZM211.261 310.768C208.317 310.768 205.789 310.272 203.677 309.28C201.565 308.288 199.917 306.896 198.733 305.104C197.549 303.312 196.877 301.2 196.717 298.768L204.061 298.432C204.253 299.776 204.637 300.928 205.213 301.888C205.821 302.816 206.621 303.52 207.613 304C208.637 304.48 209.885 304.72 211.357 304.72C212.573 304.72 213.597 304.576 214.429 304.288C215.293 304 215.949 303.568 216.397 302.992C216.845 302.384 217.069 301.648 217.069 300.784C217.069 299.984 216.877 299.296 216.493 298.72C216.109 298.112 215.373 297.568 214.285 297.088C213.197 296.576 211.597 296.08 209.485 295.6C206.573 294.928 204.221 294.176 202.429 293.344C200.669 292.512 199.389 291.472 198.589 290.224C197.789 288.944 197.389 287.344 197.389 285.424C197.389 283.376 197.885 281.584 198.877 280.048C199.901 278.512 201.373 277.312 203.293 276.448C205.213 275.584 207.501 275.152 210.157 275.152C212.973 275.152 215.357 275.648 217.309 276.64C219.261 277.632 220.781 278.992 221.869 280.72C222.989 282.448 223.661 284.432 223.885 286.672L216.589 287.056C216.493 285.872 216.173 284.848 215.629 283.984C215.085 283.088 214.349 282.4 213.421 281.92C212.493 281.44 211.373 281.2 210.061 281.2C208.397 281.2 207.085 281.568 206.125 282.304C205.197 283.04 204.733 284 204.733 285.184C204.733 286.016 204.941 286.72 205.357 287.296C205.805 287.84 206.525 288.32 207.517 288.736C208.541 289.152 209.981 289.552 211.837 289.936C215.005 290.576 217.501 291.392 219.325 292.384C221.181 293.344 222.493 294.496 223.261 295.84C224.029 297.184 224.413 298.72 224.413 300.448C224.413 302.56 223.869 304.4 222.781 305.968C221.725 307.504 220.205 308.688 218.221 309.52C216.269 310.352 213.949 310.768 211.261 310.768ZM239.639 310C236.983 310 235.031 309.392 233.783 308.176C232.535 306.928 231.911 304.96 231.911 302.272V278.224H239.111V301.408C239.111 302.656 239.367 303.504 239.879 303.952C240.423 304.4 241.223 304.624 242.279 304.624H245.879V310H239.639ZM227.783 289.648V284.272H245.879V289.648H227.783ZM257.615 310.576C254.959 310.576 252.783 309.968 251.087 308.752C249.423 307.504 248.591 305.776 248.591 303.568C248.591 301.296 249.295 299.552 250.703 298.336C252.143 297.088 254.255 296.176 257.039 295.6L265.343 293.968C265.343 292.304 264.959 291.056 264.191 290.224C263.455 289.36 262.383 288.928 260.975 288.928C259.599 288.928 258.527 289.248 257.759 289.888C256.991 290.496 256.495 291.408 256.271 292.624L249.023 292.288C249.503 289.472 250.767 287.344 252.815 285.904C254.895 284.432 257.615 283.696 260.975 283.696C264.815 283.696 267.695 284.608 269.615 286.432C271.567 288.256 272.543 290.928 272.543 294.448V303.232C272.543 303.968 272.655 304.464 272.879 304.72C273.135 304.944 273.503 305.056 273.983 305.056H274.703V310C274.479 310.064 274.111 310.128 273.599 310.192C273.119 310.256 272.639 310.288 272.159 310.288C271.135 310.288 270.175 310.112 269.279 309.76C268.415 309.408 267.711 308.816 267.167 307.984C266.623 307.12 266.351 305.904 266.351 304.336L266.975 304.816C266.655 305.968 266.079 306.976 265.247 307.84C264.447 308.704 263.391 309.376 262.079 309.856C260.799 310.336 259.311 310.576 257.615 310.576ZM259.343 305.632C260.527 305.632 261.567 305.408 262.463 304.96C263.359 304.48 264.063 303.792 264.575 302.896C265.087 302 265.343 300.944 265.343 299.728V298.48L259.487 299.728C258.335 299.952 257.455 300.336 256.847 300.88C256.271 301.392 255.983 302.064 255.983 302.896C255.983 303.76 256.271 304.432 256.847 304.912C257.423 305.392 258.255 305.632 259.343 305.632ZM289.678 310.576C287.054 310.576 284.766 310.032 282.814 308.944C280.862 307.824 279.342 306.256 278.254 304.24C277.166 302.224 276.622 299.856 276.622 297.136C276.622 294.416 277.166 292.064 278.254 290.08C279.342 288.064 280.862 286.496 282.814 285.376C284.766 284.256 287.054 283.696 289.678 283.696C291.95 283.696 293.982 284.096 295.774 284.896C297.598 285.696 299.07 286.848 300.19 288.352C301.31 289.856 301.998 291.664 302.254 293.776L294.814 294.112C294.59 292.512 294.014 291.312 293.086 290.512C292.19 289.68 291.054 289.264 289.678 289.264C287.886 289.264 286.494 289.952 285.502 291.328C284.51 292.704 284.014 294.64 284.014 297.136C284.014 299.632 284.51 301.584 285.502 302.992C286.494 304.368 287.886 305.056 289.678 305.056C291.054 305.056 292.206 304.64 293.134 303.808C294.062 302.944 294.622 301.648 294.814 299.92L302.254 300.208C302.03 302.32 301.358 304.16 300.238 305.728C299.15 307.264 297.694 308.464 295.87 309.328C294.078 310.16 292.014 310.576 289.678 310.576ZM306.233 310V275.92H313.433V294.832L322.985 284.272H331.625L321.641 294.88L331.913 310H324.041L316.985 298.96L313.433 302.752V310H306.233ZM348.617 310V275.92H360.377C365.913 275.92 370.169 277.408 373.145 280.384C376.121 283.328 377.609 287.536 377.609 293.008C377.609 298.448 376.137 302.64 373.193 305.584C370.281 308.528 366.105 310 360.665 310H348.617ZM355.913 303.856H360.377C363.673 303.856 366.105 302.976 367.673 301.216C369.273 299.424 370.073 296.672 370.073 292.96C370.073 289.248 369.273 286.512 367.673 284.752C366.105 282.96 363.673 282.064 360.377 282.064H355.913V303.856ZM394.676 310.576C392.052 310.576 389.764 310.032 387.812 308.944C385.892 307.824 384.388 306.256 383.3 304.24C382.244 302.224 381.716 299.856 381.716 297.136C381.716 294.416 382.244 292.064 383.3 290.08C384.388 288.064 385.892 286.496 387.812 285.376C389.732 284.256 392.004 283.696 394.628 283.696C397.188 283.696 399.412 284.256 401.3 285.376C403.188 286.496 404.644 288.096 405.668 290.176C406.724 292.256 407.252 294.736 407.252 297.616V299.056H389.156C389.252 301.104 389.796 302.624 390.788 303.616C391.812 304.608 393.156 305.104 394.82 305.104C396.036 305.104 397.044 304.848 397.844 304.336C398.676 303.824 399.268 303.04 399.62 301.984L406.868 302.416C406.196 304.976 404.772 306.976 402.596 308.416C400.42 309.856 397.78 310.576 394.676 310.576ZM389.156 294.64H399.86C399.764 292.752 399.236 291.344 398.276 290.416C397.348 289.488 396.132 289.024 394.628 289.024C393.124 289.024 391.876 289.52 390.884 290.512C389.924 291.472 389.348 292.848 389.156 294.64ZM418.012 310L408.604 284.272H416.14L422.236 302.752L428.284 284.272H435.82L426.364 310H418.012ZM450.223 310.576C447.599 310.576 445.311 310.032 443.359 308.944C441.439 307.824 439.935 306.256 438.847 304.24C437.791 302.224 437.263 299.856 437.263 297.136C437.263 294.416 437.791 292.064 438.847 290.08C439.935 288.064 441.439 286.496 443.359 285.376C445.279 284.256 447.551 283.696 450.175 283.696C452.735 283.696 454.959 284.256 456.847 285.376C458.735 286.496 460.191 288.096 461.215 290.176C462.271 292.256 462.799 294.736 462.799 297.616V299.056H444.703C444.799 301.104 445.343 302.624 446.335 303.616C447.359 304.608 448.703 305.104 450.367 305.104C451.583 305.104 452.591 304.848 453.391 304.336C454.223 303.824 454.815 303.04 455.167 301.984L462.415 302.416C461.743 304.976 460.319 306.976 458.143 308.416C455.967 309.856 453.327 310.576 450.223 310.576ZM444.703 294.64H455.407C455.311 292.752 454.783 291.344 453.823 290.416C452.895 289.488 451.679 289.024 450.175 289.024C448.671 289.024 447.423 289.52 446.431 290.512C445.471 291.472 444.895 292.848 444.703 294.64ZM474.203 310C472.091 310 470.443 309.472 469.259 308.416C468.075 307.36 467.483 305.648 467.483 303.28V275.92H474.683V302.512C474.683 303.28 474.859 303.824 475.211 304.144C475.563 304.464 476.075 304.624 476.747 304.624H478.475V310H474.203ZM493.725 310.576C491.101 310.576 488.813 310.032 486.861 308.944C484.909 307.824 483.389 306.256 482.301 304.24C481.213 302.224 480.669 299.856 480.669 297.136C480.669 294.416 481.213 292.064 482.301 290.08C483.389 288.064 484.909 286.496 486.861 285.376C488.813 284.256 491.101 283.696 493.725 283.696C496.349 283.696 498.637 284.256 500.589 285.376C502.541 286.496 504.061 288.064 505.149 290.08C506.237 292.064 506.781 294.416 506.781 297.136C506.781 299.856 506.237 302.224 505.149 304.24C504.061 306.256 502.541 307.824 500.589 308.944C498.637 310.032 496.349 310.576 493.725 310.576ZM493.725 305.056C495.517 305.056 496.909 304.368 497.901 302.992C498.893 301.584 499.389 299.632 499.389 297.136C499.389 294.64 498.893 292.704 497.901 291.328C496.909 289.92 495.517 289.216 493.725 289.216C491.933 289.216 490.541 289.92 489.549 291.328C488.557 292.704 488.061 294.64 488.061 297.136C488.061 299.632 488.557 301.584 489.549 302.992C490.541 304.368 491.933 305.056 493.725 305.056ZM511.264 317.2V284.272H518.176L518.32 289.696L517.744 289.456C518.384 287.6 519.424 286.176 520.864 285.184C522.304 284.192 523.984 283.696 525.904 283.696C528.304 283.696 530.304 284.288 531.904 285.472C533.504 286.656 534.704 288.272 535.504 290.32C536.336 292.336 536.752 294.608 536.752 297.136C536.752 299.632 536.336 301.904 535.504 303.952C534.704 306 533.488 307.616 531.856 308.8C530.256 309.984 528.256 310.576 525.856 310.576C524.608 310.576 523.44 310.352 522.352 309.904C521.264 309.424 520.32 308.768 519.52 307.936C518.752 307.104 518.192 306.112 517.84 304.96L518.464 304.576V317.2H511.264ZM523.888 305.056C525.584 305.056 526.912 304.352 527.872 302.944C528.864 301.536 529.36 299.6 529.36 297.136C529.36 294.672 528.864 292.736 527.872 291.328C526.912 289.92 525.584 289.216 523.888 289.216C522.768 289.216 521.792 289.52 520.96 290.128C520.16 290.704 519.536 291.584 519.088 292.768C518.672 293.952 518.464 295.408 518.464 297.136C518.464 298.864 518.672 300.32 519.088 301.504C519.536 302.688 520.16 303.584 520.96 304.192C521.792 304.768 522.768 305.056 523.888 305.056ZM552.785 310.576C550.161 310.576 547.873 310.032 545.921 308.944C544.001 307.824 542.497 306.256 541.409 304.24C540.353 302.224 539.825 299.856 539.825 297.136C539.825 294.416 540.353 292.064 541.409 290.08C542.497 288.064 544.001 286.496 545.921 285.376C547.841 284.256 550.113 283.696 552.737 283.696C555.297 283.696 557.521 284.256 559.409 285.376C561.297 286.496 562.753 288.096 563.777 290.176C564.833 292.256 565.361 294.736 565.361 297.616V299.056H547.265C547.361 301.104 547.905 302.624 548.897 303.616C549.921 304.608 551.265 305.104 552.929 305.104C554.145 305.104 555.153 304.848 555.953 304.336C556.785 303.824 557.377 303.04 557.729 301.984L564.977 302.416C564.305 304.976 562.881 306.976 560.705 308.416C558.529 309.856 555.889 310.576 552.785 310.576ZM547.265 294.64H557.969C557.873 292.752 557.345 291.344 556.385 290.416C555.457 289.488 554.241 289.024 552.737 289.024C551.233 289.024 549.985 289.52 548.993 290.512C548.033 291.472 547.457 292.848 547.265 294.64ZM569.811 310V284.272H576.627L576.867 291.76L576.339 291.616C576.755 289.024 577.491 287.152 578.547 286C579.603 284.848 581.059 284.272 582.915 284.272H585.267V290.224H582.915C581.571 290.224 580.467 290.4 579.603 290.752C578.739 291.104 578.083 291.664 577.635 292.432C577.219 293.2 577.011 294.24 577.011 295.552V310H569.811ZM115.003 372.768C111.899 372.768 109.131 372.064 106.699 370.656C104.299 369.248 102.411 367.216 101.035 364.56C99.6905 361.904 99.0185 358.72 99.0185 355.008C99.0185 351.392 99.6745 348.256 100.987 345.6C102.299 342.912 104.171 340.832 106.603 339.36C109.035 337.888 111.883 337.152 115.147 337.152C119.595 337.152 123.051 338.256 125.515 340.464C128.011 342.64 129.611 345.76 130.315 349.824L122.731 350.112C122.347 347.968 121.515 346.304 120.235 345.12C118.955 343.904 117.259 343.296 115.147 343.296C113.323 343.296 111.771 343.776 110.491 344.736C109.211 345.696 108.235 347.056 107.563 348.816C106.891 350.576 106.555 352.64 106.555 355.008C106.555 357.408 106.891 359.488 107.563 361.248C108.267 362.976 109.259 364.304 110.539 365.232C111.819 366.16 113.339 366.624 115.099 366.624C117.403 366.624 119.179 365.984 120.427 364.704C121.707 363.392 122.507 361.584 122.827 359.28L130.459 359.568C130.011 362.352 129.131 364.72 127.819 366.672C126.507 368.624 124.779 370.128 122.635 371.184C120.523 372.24 117.979 372.768 115.003 372.768ZM136.783 379.2V373.824H140.191C141.023 373.824 141.631 373.696 142.015 373.44C142.431 373.216 142.751 372.8 142.975 372.192L143.502 370.704H141.535L132.511 346.272H139.855L145.759 363.984L151.279 346.272H158.622L148.735 374.448C148.159 376.144 147.327 377.36 146.239 378.096C145.151 378.832 143.631 379.2 141.679 379.2H136.783ZM177.111 372.576C175.319 372.576 173.751 372.192 172.407 371.424C171.095 370.656 170.071 369.584 169.335 368.208L169.191 372H162.327V337.92H169.527V349.92C170.199 348.736 171.191 347.744 172.503 346.944C173.815 346.112 175.351 345.696 177.111 345.696C179.287 345.696 181.175 346.256 182.775 347.376C184.375 348.464 185.607 350.016 186.471 352.032C187.367 354.048 187.815 356.416 187.815 359.136C187.815 361.856 187.367 364.224 186.471 366.24C185.607 368.256 184.375 369.824 182.775 370.944C181.175 372.032 179.287 372.576 177.111 372.576ZM175.095 367.056C176.695 367.056 177.975 366.368 178.935 364.992C179.927 363.584 180.423 361.632 180.423 359.136C180.423 356.64 179.943 354.704 178.983 353.328C178.023 351.92 176.743 351.216 175.143 351.216C173.959 351.216 172.935 351.536 172.071 352.176C171.239 352.784 170.599 353.68 170.151 354.864C169.735 356.048 169.527 357.472 169.527 359.136C169.527 360.768 169.735 362.176 170.151 363.36C170.599 364.544 171.239 365.456 172.071 366.096C172.935 366.736 173.943 367.056 175.095 367.056ZM203.848 372.576C201.224 372.576 198.936 372.032 196.984 370.944C195.064 369.824 193.56 368.256 192.472 366.24C191.416 364.224 190.888 361.856 190.888 359.136C190.888 356.416 191.416 354.064 192.472 352.08C193.56 350.064 195.064 348.496 196.984 347.376C198.904 346.256 201.176 345.696 203.8 345.696C206.36 345.696 208.584 346.256 210.472 347.376C212.36 348.496 213.816 350.096 214.84 352.176C215.896 354.256 216.424 356.736 216.424 359.616V361.056H198.328C198.424 363.104 198.968 364.624 199.96 365.616C200.984 366.608 202.328 367.104 203.992 367.104C205.208 367.104 206.216 366.848 207.016 366.336C207.848 365.824 208.44 365.04 208.792 363.984L216.04 364.416C215.368 366.976 213.944 368.976 211.768 370.416C209.592 371.856 206.952 372.576 203.848 372.576ZM198.328 356.64H209.032C208.936 354.752 208.408 353.344 207.448 352.416C206.52 351.488 205.304 351.024 203.8 351.024C202.296 351.024 201.048 351.52 200.056 352.512C199.096 353.472 198.52 354.848 198.328 356.64ZM220.874 372V346.272H227.69L227.93 353.76L227.402 353.616C227.818 351.024 228.554 349.152 229.61 348C230.666 346.848 232.122 346.272 233.978 346.272H236.33V352.224H233.978C232.634 352.224 231.53 352.4 230.666 352.752C229.802 353.104 229.146 353.664 228.698 354.432C228.282 355.2 228.074 356.24 228.074 357.552V372H220.874ZM250.334 372.576C247.678 372.576 245.454 372.208 243.662 371.472C241.87 370.704 240.494 369.68 239.534 368.4C238.606 367.088 238.078 365.584 237.95 363.888L245.246 363.648C245.47 364.864 245.982 365.808 246.782 366.48C247.582 367.152 248.766 367.488 250.334 367.488C251.614 367.488 252.606 367.28 253.31 366.864C254.046 366.448 254.414 365.808 254.414 364.944C254.414 364.4 254.286 363.952 254.03 363.6C253.774 363.216 253.262 362.896 252.494 362.64C251.758 362.352 250.654 362.096 249.182 361.872C246.462 361.392 244.334 360.832 242.798 360.192C241.262 359.552 240.174 358.72 239.534 357.696C238.894 356.672 238.574 355.424 238.574 353.952C238.574 351.488 239.518 349.504 241.406 348C243.326 346.464 246.19 345.696 249.998 345.696C252.43 345.696 254.462 346.08 256.094 346.848C257.758 347.616 259.038 348.672 259.934 350.016C260.862 351.328 261.438 352.832 261.662 354.528L254.414 354.816C254.318 353.984 254.062 353.28 253.646 352.704C253.262 352.096 252.766 351.632 252.158 351.312C251.55 350.96 250.814 350.784 249.95 350.784C248.67 350.784 247.678 351.056 246.974 351.6C246.302 352.112 245.966 352.8 245.966 353.664C245.966 354.304 246.11 354.832 246.398 355.248C246.718 355.632 247.23 355.952 247.934 356.208C248.638 356.464 249.582 356.672 250.766 356.832C253.518 357.216 255.694 357.76 257.294 358.464C258.926 359.136 260.094 359.984 260.798 361.008C261.502 362.032 261.854 363.296 261.854 364.8C261.854 366.464 261.374 367.872 260.414 369.024C259.454 370.176 258.11 371.056 256.382 371.664C254.686 372.272 252.67 372.576 250.334 372.576ZM277.864 372.576C275.24 372.576 272.952 372.032 271 370.944C269.08 369.824 267.576 368.256 266.488 366.24C265.432 364.224 264.904 361.856 264.904 359.136C264.904 356.416 265.432 354.064 266.488 352.08C267.576 350.064 269.08 348.496 271 347.376C272.92 346.256 275.192 345.696 277.816 345.696C280.376 345.696 282.6 346.256 284.488 347.376C286.376 348.496 287.832 350.096 288.856 352.176C289.912 354.256 290.44 356.736 290.44 359.616V361.056H272.344C272.44 363.104 272.984 364.624 273.976 365.616C275 366.608 276.344 367.104 278.008 367.104C279.224 367.104 280.232 366.848 281.032 366.336C281.864 365.824 282.456 365.04 282.808 363.984L290.056 364.416C289.384 366.976 287.96 368.976 285.784 370.416C283.608 371.856 280.968 372.576 277.864 372.576ZM272.344 356.64H283.048C282.952 354.752 282.424 353.344 281.464 352.416C280.536 351.488 279.32 351.024 277.816 351.024C276.312 351.024 275.064 351.52 274.072 352.512C273.112 353.472 272.536 354.848 272.344 356.64ZM306.553 372.576C303.929 372.576 301.641 372.032 299.689 370.944C297.737 369.824 296.217 368.256 295.129 366.24C294.041 364.224 293.497 361.856 293.497 359.136C293.497 356.416 294.041 354.064 295.129 352.08C296.217 350.064 297.737 348.496 299.689 347.376C301.641 346.256 303.929 345.696 306.553 345.696C308.825 345.696 310.857 346.096 312.649 346.896C314.473 347.696 315.945 348.848 317.065 350.352C318.185 351.856 318.873 353.664 319.129 355.776L311.689 356.112C311.465 354.512 310.889 353.312 309.961 352.512C309.065 351.68 307.929 351.264 306.553 351.264C304.761 351.264 303.369 351.952 302.377 353.328C301.385 354.704 300.889 356.64 300.889 359.136C300.889 361.632 301.385 363.584 302.377 364.992C303.369 366.368 304.761 367.056 306.553 367.056C307.929 367.056 309.081 366.64 310.009 365.808C310.937 364.944 311.497 363.648 311.689 361.92L319.129 362.208C318.905 364.32 318.233 366.16 317.113 367.728C316.025 369.264 314.569 370.464 312.745 371.328C310.953 372.16 308.889 372.576 306.553 372.576ZM331.556 372.576C328.9 372.576 326.82 371.728 325.316 370.032C323.844 368.304 323.108 365.904 323.108 362.832V346.272H330.308V361.152C330.308 363.136 330.612 364.592 331.22 365.52C331.828 366.416 332.788 366.864 334.1 366.864C335.572 366.864 336.708 366.368 337.508 365.376C338.34 364.352 338.756 362.832 338.756 360.816V346.272H345.956V372H339.38L339.188 364.608L340.1 364.8C339.716 367.36 338.804 369.296 337.364 370.608C335.924 371.92 333.988 372.576 331.556 372.576ZM352.264 372V346.272H359.08L359.32 353.76L358.792 353.616C359.208 351.024 359.944 349.152 361 348C362.056 346.848 363.512 346.272 365.368 346.272H367.72V352.224H365.368C364.024 352.224 362.92 352.4 362.056 352.752C361.192 353.104 360.536 353.664 360.088 354.432C359.672 355.2 359.464 356.24 359.464 357.552V372H352.264ZM371.483 372V346.272H378.683V372H371.483ZM371.339 343.104V337.344H378.779V343.104H371.339ZM394.233 372C391.577 372 389.625 371.392 388.377 370.176C387.129 368.928 386.505 366.96 386.505 364.272V340.224H393.705V363.408C393.705 364.656 393.961 365.504 394.473 365.952C395.017 366.4 395.817 366.624 396.873 366.624H400.473V372H394.233ZM382.377 351.648V346.272H400.473V351.648H382.377ZM406.501 379.2V373.824H409.909C410.741 373.824 411.349 373.696 411.733 373.44C412.149 373.216 412.469 372.8 412.693 372.192L413.221 370.704H411.253L402.229 346.272H409.573L415.477 363.984L420.997 346.272H428.341L418.453 374.448C417.877 376.144 417.045 377.36 415.957 378.096C414.869 378.832 413.349 379.2 411.397 379.2H406.501ZM443.82 372V337.92H467.532V344.064H451.116V351.888H466.956V357.936H451.116V365.856H467.916V372H443.82ZM473.295 372V346.272H479.776L480.064 353.808L479.152 353.568C479.408 351.648 479.92 350.112 480.688 348.96C481.488 347.808 482.48 346.976 483.664 346.464C484.848 345.952 486.144 345.696 487.552 345.696C489.408 345.696 490.976 346.096 492.256 346.896C493.568 347.696 494.56 348.832 495.232 350.304C495.936 351.744 496.288 353.456 496.288 355.44V372H489.088V357.84C489.088 356.464 488.976 355.296 488.752 354.336C488.528 353.376 488.128 352.656 487.552 352.176C486.976 351.664 486.176 351.408 485.152 351.408C483.648 351.408 482.496 351.968 481.696 353.088C480.896 354.176 480.496 355.76 480.496 357.84V372H473.295ZM511.608 372C508.952 372 507 371.392 505.752 370.176C504.504 368.928 503.88 366.96 503.88 364.272V340.224H511.08V363.408C511.08 364.656 511.336 365.504 511.848 365.952C512.392 366.4 513.192 366.624 514.248 366.624H517.848V372H511.608ZM499.752 351.648V346.272H517.848V351.648H499.752ZM522.092 372V337.92H529.292V352.272H528.332C528.588 350.768 529.084 349.536 529.82 348.576C530.588 347.616 531.532 346.896 532.652 346.416C533.804 345.936 535.052 345.696 536.396 345.696C538.316 345.696 539.916 346.112 541.196 346.944C542.476 347.776 543.436 348.928 544.076 350.4C544.748 351.872 545.084 353.552 545.084 355.44V372H537.884V357.168C537.884 355.248 537.58 353.808 536.972 352.848C536.396 351.888 535.404 351.408 533.996 351.408C532.524 351.408 531.372 351.904 530.54 352.896C529.708 353.888 529.292 355.376 529.292 357.36V372H522.092ZM559.275 372.576C556.619 372.576 554.539 371.728 553.035 370.032C551.563 368.304 550.827 365.904 550.827 362.832V346.272H558.027V361.152C558.027 363.136 558.331 364.592 558.939 365.52C559.547 366.416 560.507 366.864 561.819 366.864C563.291 366.864 564.427 366.368 565.227 365.376C566.059 364.352 566.475 362.832 566.475 360.816V346.272H573.675V372H567.099L566.907 364.608L567.819 364.8C567.435 367.36 566.523 369.296 565.083 370.608C563.643 371.92 561.707 372.576 559.275 372.576ZM590.506 372.576C587.85 372.576 585.626 372.208 583.834 371.472C582.042 370.704 580.666 369.68 579.706 368.4C578.778 367.088 578.25 365.584 578.122 363.888L585.418 363.648C585.642 364.864 586.154 365.808 586.954 366.48C587.754 367.152 588.938 367.488 590.506 367.488C591.786 367.488 592.778 367.28 593.482 366.864C594.218 366.448 594.586 365.808 594.586 364.944C594.586 364.4 594.458 363.952 594.202 363.6C593.946 363.216 593.434 362.896 592.666 362.64C591.93 362.352 590.826 362.096 589.354 361.872C586.634 361.392 584.506 360.832 582.97 360.192C581.434 359.552 580.346 358.72 579.706 357.696C579.066 356.672 578.746 355.424 578.746 353.952C578.746 351.488 579.69 349.504 581.578 348C583.498 346.464 586.362 345.696 590.17 345.696C592.602 345.696 594.634 346.08 596.266 346.848C597.93 347.616 599.21 348.672 600.106 350.016C601.034 351.328 601.61 352.832 601.834 354.528L594.586 354.816C594.49 353.984 594.234 353.28 593.818 352.704C593.434 352.096 592.938 351.632 592.33 351.312C591.722 350.96 590.986 350.784 590.122 350.784C588.842 350.784 587.85 351.056 587.146 351.6C586.474 352.112 586.138 352.8 586.138 353.664C586.138 354.304 586.282 354.832 586.57 355.248C586.89 355.632 587.402 355.952 588.106 356.208C588.81 356.464 589.754 356.672 590.938 356.832C593.69 357.216 595.866 357.76 597.466 358.464C599.098 359.136 600.266 359.984 600.97 361.008C601.674 362.032 602.026 363.296 602.026 364.8C602.026 366.464 601.546 367.872 600.586 369.024C599.626 370.176 598.282 371.056 596.554 371.664C594.858 372.272 592.842 372.576 590.506 372.576ZM606.467 372V346.272H613.667V372H606.467ZM606.323 343.104V337.344H613.763V343.104H606.323ZM627.131 372.576C624.475 372.576 622.299 371.968 620.603 370.752C618.939 369.504 618.107 367.776 618.107 365.568C618.107 363.296 618.811 361.552 620.219 360.336C621.659 359.088 623.771 358.176 626.555 357.6L634.859 355.968C634.859 354.304 634.475 353.056 633.707 352.224C632.971 351.36 631.899 350.928 630.491 350.928C629.115 350.928 628.043 351.248 627.275 351.888C626.507 352.496 626.011 353.408 625.787 354.624L618.539 354.288C619.019 351.472 620.283 349.344 622.331 347.904C624.411 346.432 627.131 345.696 630.491 345.696C634.331 345.696 637.211 346.608 639.131 348.432C641.083 350.256 642.059 352.928 642.059 356.448V365.232C642.059 365.968 642.171 366.464 642.395 366.72C642.651 366.944 643.019 367.056 643.499 367.056H644.219V372C643.995 372.064 643.627 372.128 643.115 372.192C642.635 372.256 642.155 372.288 641.675 372.288C640.651 372.288 639.691 372.112 638.795 371.76C637.931 371.408 637.227 370.816 636.683 369.984C636.139 369.12 635.867 367.904 635.867 366.336L636.491 366.816C636.171 367.968 635.595 368.976 634.763 369.84C633.963 370.704 632.907 371.376 631.595 371.856C630.315 372.336 628.827 372.576 627.131 372.576ZM628.859 367.632C630.043 367.632 631.083 367.408 631.979 366.96C632.875 366.48 633.579 365.792 634.091 364.896C634.603 364 634.859 362.944 634.859 361.728V360.48L629.003 361.728C627.851 361.952 626.971 362.336 626.363 362.88C625.787 363.392 625.499 364.064 625.499 364.896C625.499 365.76 625.787 366.432 626.363 366.912C626.939 367.392 627.771 367.632 628.859 367.632ZM658.522 372.576C655.866 372.576 653.642 372.208 651.85 371.472C650.058 370.704 648.682 369.68 647.722 368.4C646.794 367.088 646.266 365.584 646.138 363.888L653.434 363.648C653.658 364.864 654.17 365.808 654.97 366.48C655.77 367.152 656.954 367.488 658.522 367.488C659.802 367.488 660.794 367.28 661.498 366.864C662.234 366.448 662.602 365.808 662.602 364.944C662.602 364.4 662.474 363.952 662.218 363.6C661.962 363.216 661.45 362.896 660.682 362.64C659.946 362.352 658.842 362.096 657.37 361.872C654.65 361.392 652.522 360.832 650.986 360.192C649.45 359.552 648.362 358.72 647.722 357.696C647.082 356.672 646.762 355.424 646.762 353.952C646.762 351.488 647.706 349.504 649.594 348C651.514 346.464 654.378 345.696 658.186 345.696C660.618 345.696 662.65 346.08 664.282 346.848C665.946 347.616 667.226 348.672 668.122 350.016C669.05 351.328 669.626 352.832 669.85 354.528L662.602 354.816C662.506 353.984 662.25 353.28 661.834 352.704C661.45 352.096 660.954 351.632 660.346 351.312C659.738 350.96 659.002 350.784 658.138 350.784C656.858 350.784 655.866 351.056 655.162 351.6C654.49 352.112 654.154 352.8 654.154 353.664C654.154 354.304 654.298 354.832 654.586 355.248C654.906 355.632 655.418 355.952 656.122 356.208C656.826 356.464 657.77 356.672 658.954 356.832C661.706 357.216 663.882 357.76 665.482 358.464C667.114 359.136 668.282 359.984 668.986 361.008C669.69 362.032 670.042 363.296 670.042 364.8C670.042 366.464 669.562 367.872 668.602 369.024C667.642 370.176 666.298 371.056 664.57 371.664C662.874 372.272 660.858 372.576 658.522 372.576ZM684.342 372C681.686 372 679.734 371.392 678.486 370.176C677.238 368.928 676.614 366.96 676.614 364.272V340.224H683.814V363.408C683.814 364.656 684.07 365.504 684.582 365.952C685.126 366.4 685.926 366.624 686.982 366.624H690.582V372H684.342ZM672.486 351.648V346.272H690.582V351.648H672.486Z" fill="white"/>
<path d="M76.1705 552V526.272H82.9865L83.2265 533.76L82.6985 533.616C83.1145 531.024 83.8505 529.152 84.9065 528C85.9625 526.848 87.4185 526.272 89.2745 526.272H91.6265V532.224H89.2745C87.9305 532.224 86.8265 532.4 85.9625 532.752C85.0985 533.104 84.4425 533.664 83.9945 534.432C83.5785 535.2 83.3705 536.24 83.3705 537.552V552H76.1705ZM102.553 552.576C99.8965 552.576 97.7205 551.968 96.0245 550.752C94.3605 549.504 93.5285 547.776 93.5285 545.568C93.5285 543.296 94.2325 541.552 95.6405 540.336C97.0805 539.088 99.1925 538.176 101.977 537.6L110.281 535.968C110.281 534.304 109.897 533.056 109.129 532.224C108.393 531.36 107.321 530.928 105.913 530.928C104.537 530.928 103.465 531.248 102.697 531.888C101.929 532.496 101.433 533.408 101.209 534.624L93.9605 534.288C94.4405 531.472 95.7045 529.344 97.7525 527.904C99.8325 526.432 102.553 525.696 105.913 525.696C109.753 525.696 112.633 526.608 114.553 528.432C116.505 530.256 117.481 532.928 117.481 536.448V545.232C117.481 545.968 117.593 546.464 117.817 546.72C118.073 546.944 118.441 547.056 118.921 547.056H119.641V552C119.417 552.064 119.049 552.128 118.537 552.192C118.057 552.256 117.577 552.288 117.096 552.288C116.073 552.288 115.113 552.112 114.217 551.76C113.353 551.408 112.649 550.816 112.105 549.984C111.561 549.12 111.289 547.904 111.289 546.336L111.913 546.816C111.593 547.968 111.017 548.976 110.185 549.84C109.385 550.704 108.329 551.376 107.017 551.856C105.737 552.336 104.249 552.576 102.553 552.576ZM104.281 547.632C105.465 547.632 106.505 547.408 107.401 546.96C108.297 546.48 109.001 545.792 109.513 544.896C110.025 544 110.281 542.944 110.281 541.728V540.48L104.424 541.728C103.273 541.952 102.393 542.336 101.785 542.88C101.209 543.392 100.921 544.064 100.921 544.896C100.921 545.76 101.209 546.432 101.785 546.912C102.361 547.392 103.193 547.632 104.281 547.632ZM124.892 552V525.936C124.892 523.376 125.58 521.408 126.956 520.032C128.332 518.624 130.476 517.92 133.388 517.92H138.86V523.296H134.924C133.932 523.296 133.212 523.552 132.764 524.064C132.316 524.544 132.092 525.28 132.092 526.272V552H124.892ZM121.148 532.608V527.232H138.476V532.608H121.148ZM149.756 552.576C147.1 552.576 144.924 551.968 143.228 550.752C141.564 549.504 140.732 547.776 140.732 545.568C140.732 543.296 141.436 541.552 142.844 540.336C144.284 539.088 146.396 538.176 149.18 537.6L157.484 535.968C157.484 534.304 157.1 533.056 156.332 532.224C155.596 531.36 154.524 530.928 153.116 530.928C151.74 530.928 150.668 531.248 149.9 531.888C149.132 532.496 148.636 533.408 148.412 534.624L141.164 534.288C141.644 531.472 142.908 529.344 144.956 527.904C147.036 526.432 149.756 525.696 153.116 525.696C156.956 525.696 159.836 526.608 161.756 528.432C163.708 530.256 164.684 532.928 164.684 536.448V545.232C164.684 545.968 164.796 546.464 165.02 546.72C165.276 546.944 165.644 547.056 166.124 547.056H166.844V552C166.62 552.064 166.252 552.128 165.74 552.192C165.26 552.256 164.78 552.288 164.3 552.288C163.276 552.288 162.316 552.112 161.42 551.76C160.556 551.408 159.852 550.816 159.308 549.984C158.764 549.12 158.492 547.904 158.492 546.336L159.116 546.816C158.796 547.968 158.22 548.976 157.388 549.84C156.588 550.704 155.532 551.376 154.22 551.856C152.94 552.336 151.452 552.576 149.756 552.576ZM151.484 547.632C152.668 547.632 153.708 547.408 154.604 546.96C155.5 546.48 156.204 545.792 156.716 544.896C157.228 544 157.484 542.944 157.484 541.728V540.48L151.628 541.728C150.476 541.952 149.596 542.336 148.988 542.88C148.412 543.392 148.124 544.064 148.124 544.896C148.124 545.76 148.412 546.432 148.988 546.912C149.564 547.392 150.396 547.632 151.484 547.632ZM170.624 552V526.272H177.104L177.392 533.808L176.48 533.568C176.736 531.648 177.248 530.112 178.016 528.96C178.816 527.808 179.808 526.976 180.992 526.464C182.176 525.952 183.472 525.696 184.88 525.696C186.736 525.696 188.304 526.096 189.584 526.896C190.896 527.696 191.888 528.832 192.56 530.304C193.264 531.744 193.616 533.456 193.616 535.44V552H186.416V537.84C186.416 536.464 186.304 535.296 186.08 534.336C185.856 533.376 185.456 532.656 184.88 532.176C184.304 531.664 183.504 531.408 182.48 531.408C180.976 531.408 179.824 531.968 179.024 533.088C178.224 534.176 177.824 535.76 177.824 537.84V552H170.624ZM208.526 552.576C206.35 552.576 204.462 552.032 202.862 550.944C201.294 549.824 200.078 548.272 199.214 546.288C198.382 544.272 197.966 541.888 197.966 539.136C197.966 536.384 198.398 534.016 199.262 532.032C200.126 530.016 201.342 528.464 202.91 527.376C204.51 526.256 206.382 525.696 208.526 525.696C210.35 525.696 211.918 526.08 213.23 526.848C214.574 527.584 215.582 528.608 216.254 529.92V517.92H223.454V552H216.59L216.446 548.208C215.742 549.584 214.686 550.656 213.278 551.424C211.902 552.192 210.318 552.576 208.526 552.576ZM210.878 547.056C212.03 547.056 213.006 546.752 213.806 546.144C214.606 545.536 215.214 544.656 215.63 543.504C216.046 542.32 216.254 540.864 216.254 539.136C216.254 537.376 216.046 535.92 215.63 534.768C215.214 533.584 214.606 532.704 213.806 532.128C213.006 531.52 212.03 531.216 210.878 531.216C209.182 531.216 207.838 531.936 206.846 533.376C205.854 534.784 205.358 536.704 205.358 539.136C205.358 541.536 205.854 543.456 206.846 544.896C207.87 546.336 209.214 547.056 210.878 547.056ZM229.124 552V526.272H236.324V552H229.124ZM228.98 523.104V517.344H236.42V523.104H228.98ZM241.232 552V544.656H249.056V552H241.232ZM253.967 552V526.272H260.447L260.687 532.464L260.015 532.176C260.367 530.8 260.895 529.632 261.599 528.672C262.335 527.712 263.215 526.976 264.239 526.464C265.263 525.952 266.383 525.696 267.599 525.696C269.743 525.696 271.471 526.32 272.783 527.568C274.127 528.816 274.991 530.496 275.375 532.608L274.463 532.656C274.751 531.152 275.247 529.888 275.951 528.864C276.687 527.808 277.583 527.024 278.639 526.512C279.695 525.968 280.879 525.696 282.191 525.696C283.983 525.696 285.519 526.064 286.799 526.8C288.079 527.536 289.071 528.64 289.775 530.112C290.479 531.552 290.831 533.328 290.831 535.44V552H283.631V537.456C283.631 535.44 283.327 533.936 282.719 532.944C282.111 531.92 281.119 531.408 279.743 531.408C278.879 531.408 278.143 531.648 277.535 532.128C276.927 532.608 276.447 533.312 276.095 534.24C275.775 535.136 275.615 536.24 275.615 537.552V552H269.135V537.552C269.135 535.568 268.847 534.048 268.271 532.992C267.695 531.936 266.703 531.408 265.295 531.408C264.431 531.408 263.679 531.648 263.039 532.128C262.431 532.608 261.967 533.312 261.647 534.24C261.327 535.168 261.167 536.272 261.167 537.552V552H253.967ZM308.145 552.576C305.521 552.576 303.233 552.032 301.281 550.944C299.361 549.824 297.857 548.256 296.769 546.24C295.713 544.224 295.185 541.856 295.185 539.136C295.185 536.416 295.713 534.064 296.769 532.08C297.857 530.064 299.361 528.496 301.281 527.376C303.201 526.256 305.473 525.696 308.097 525.696C310.657 525.696 312.881 526.256 314.769 527.376C316.657 528.496 318.113 530.096 319.137 532.176C320.193 534.256 320.721 536.736 320.721 539.616V541.056H302.625C302.721 543.104 303.265 544.624 304.257 545.616C305.281 546.608 306.625 547.104 308.289 547.104C309.505 547.104 310.513 546.848 311.313 546.336C312.145 545.824 312.737 545.04 313.089 543.984L320.337 544.416C319.665 546.976 318.241 548.976 316.065 550.416C313.889 551.856 311.249 552.576 308.145 552.576ZM302.625 536.64H313.329C313.233 534.752 312.705 533.344 311.745 532.416C310.817 531.488 309.601 531.024 308.097 531.024C306.593 531.024 305.345 531.52 304.353 532.512C303.393 533.472 302.817 534.848 302.625 536.64Z" fill="white"/>
<line x1="0.00247198" y1="37.5" x2="1200" y2="37.4328" stroke="white"/>
<path d="M879.919 383.82L856.731 408.795L849.59 402.165L860.108 378.068L836.892 390.375L829.751 383.745L852.939 358.77L858.286 363.734L843.262 379.916L864.095 369.259L868.668 373.505L859.549 395.037L874.572 378.856L879.919 383.82ZM858.841 354.056L854.006 356.408L852.515 353.344C852.151 352.596 851.77 352.105 851.372 351.871C850.989 351.595 850.475 351.49 849.83 351.554L848.261 351.73L849.122 353.5L831.1 372.303L827.887 365.699L841.231 352.641L822.889 355.426L819.676 348.822L849.339 345.388C851.116 345.164 852.573 345.38 853.711 346.036C854.849 346.693 855.845 347.898 856.699 349.654L858.841 354.056ZM841.319 329.521L807.258 330.642L806.809 317.018C806.674 312.924 807.56 309.693 809.468 307.325C811.374 304.925 814.054 303.668 817.508 303.554C819.779 303.48 821.779 303.942 823.509 304.942C825.206 305.91 826.55 307.371 827.543 309.323C828.503 311.245 829.027 313.565 829.117 316.283L829.325 322.616L841.079 322.229L841.319 329.521ZM823.185 322.818L822.991 316.917C822.927 314.998 822.463 313.525 821.596 312.497C820.698 311.47 819.417 310.983 817.754 311.038C816.123 311.092 814.909 311.66 814.112 312.743C813.283 313.795 812.9 315.296 812.964 317.247L813.158 323.148L823.185 322.818ZM844.395 293.446C843.677 295.97 842.528 298.021 840.947 299.601C839.336 301.172 837.412 302.205 835.175 302.7C832.939 303.195 830.512 303.071 827.896 302.326C825.28 301.582 823.166 300.415 821.556 298.826C819.914 297.228 818.822 295.337 818.279 293.153C817.736 290.969 817.823 288.615 818.541 286.091C819.259 283.567 820.423 281.52 822.035 279.949C823.646 278.378 825.57 277.345 827.807 276.85C830.013 276.346 832.424 276.467 835.04 277.211C837.656 277.955 839.785 279.126 841.427 280.724C843.068 282.322 844.16 284.213 844.703 286.397C845.216 288.572 845.113 290.922 844.395 293.446ZM839.086 291.935C839.576 290.212 839.295 288.685 838.243 287.354C837.16 286.015 835.418 285.004 833.018 284.321C830.617 283.638 828.619 283.585 827.024 284.163C825.399 284.732 824.341 285.878 823.85 287.602C823.36 289.325 823.656 290.857 824.739 292.196C825.791 293.527 827.518 294.533 829.918 295.216C832.319 295.899 834.332 295.956 835.958 295.387C837.553 294.81 838.596 293.659 839.086 291.935ZM847.67 280.753L825.441 267.8L828.873 261.911L835.463 265.474L835.073 265.857C833.043 264.193 831.796 262.614 831.332 261.122C830.869 259.63 831.104 258.082 832.039 256.478L833.223 254.446L838.365 257.443L837.181 259.475C836.504 260.636 836.101 261.678 835.97 262.602C835.839 263.526 835.993 264.375 836.431 265.148C836.885 265.895 837.679 266.598 838.812 267.258L851.295 274.533L847.67 280.753ZM862.737 259.801C860.959 261.773 859.2 262.816 857.461 262.928C855.699 263.02 853.819 262.165 851.823 260.365L833.964 244.26L838.785 238.913L856.003 254.439C856.93 255.275 857.731 255.653 858.407 255.573C859.104 255.469 859.806 255.024 860.513 254.24L862.924 251.567L866.916 255.167L862.737 259.801ZM839.683 254.976L835.691 251.376L847.809 237.937L851.802 241.538L839.683 254.976ZM876.77 249.782C874.583 251.232 872.376 252.044 870.148 252.216C867.902 252.361 865.768 251.895 863.747 250.816C861.726 249.738 859.964 248.065 858.461 245.798C856.957 243.531 856.111 241.271 855.921 239.016C855.713 236.735 856.113 234.588 857.121 232.575C858.128 230.563 859.725 228.832 861.912 227.381C864.099 225.931 866.315 225.133 868.561 224.987C870.807 224.842 872.94 225.308 874.961 226.387C876.964 227.439 878.718 229.098 880.221 231.365C881.725 233.632 882.58 235.906 882.788 238.187C882.996 240.469 882.596 242.616 881.588 244.628C880.563 246.613 878.957 248.331 876.77 249.782ZM873.719 245.182C875.212 244.191 875.992 242.848 876.058 241.153C876.106 239.432 875.441 237.531 874.061 235.451C872.681 233.371 871.198 232.032 869.611 231.433C868.006 230.808 866.457 230.991 864.963 231.981C863.47 232.972 862.699 234.328 862.651 236.05C862.584 237.745 863.241 239.632 864.621 241.712C866.001 243.792 867.493 245.145 869.098 245.77C870.685 246.368 872.225 246.172 873.719 245.182ZM889.364 241.865L880.726 217.274C879.878 214.858 879.875 212.773 880.717 211.019C881.549 209.235 883.338 207.86 886.086 206.895L891.248 205.081L893.03 210.154L889.316 211.458C888.38 211.787 887.786 212.267 887.533 212.898C887.269 213.5 887.302 214.268 887.631 215.204L896.157 239.478L889.364 241.865ZM879.405 224.809L877.623 219.737L893.972 213.994L895.754 219.067L879.405 224.809ZM912.823 237.604C910.208 237.819 907.883 237.464 905.848 236.54C903.811 235.584 902.168 234.146 900.918 232.226C899.668 230.306 898.932 227.991 898.709 225.28C898.486 222.569 898.835 220.18 899.757 218.114C900.676 216.015 902.062 214.328 903.916 213.052C905.769 211.775 908.004 211.03 910.619 210.814C913.234 210.599 915.56 210.97 917.597 211.926C919.635 212.882 921.278 214.32 922.528 216.24C923.775 218.128 924.51 220.428 924.733 223.138C924.956 225.849 924.608 228.254 923.689 230.352C922.77 232.451 921.384 234.138 919.53 235.414C917.674 236.659 915.438 237.389 912.823 237.604ZM912.37 232.102C914.156 231.955 915.487 231.156 916.363 229.703C917.236 228.218 917.571 226.232 917.366 223.745C917.161 221.257 916.508 219.368 915.407 218.078C914.302 216.756 912.857 216.169 911.071 216.316C909.285 216.463 907.956 217.279 907.083 218.763C906.207 220.216 905.871 222.186 906.076 224.674C906.281 227.161 906.935 229.066 908.039 230.388C909.141 231.678 910.584 232.249 912.37 232.102ZM933.14 237.148C931.051 236.843 929.496 236.083 928.477 234.867C927.458 233.651 927.119 231.872 927.461 229.528L931.412 202.455L938.536 203.495L934.697 229.808C934.586 230.568 934.681 231.132 934.984 231.499C935.286 231.867 935.769 232.099 936.434 232.196L938.144 232.446L937.368 237.765L933.14 237.148ZM938.506 238.212L945.829 213.548L952.731 215.598L945.408 240.262L938.506 238.212ZM946.592 210.47L948.232 204.949L955.364 207.066L953.725 212.588L946.592 210.47ZM957.131 247.298C954.842 246.016 953.111 244.423 951.94 242.52C950.784 240.589 950.224 238.478 950.26 236.188C950.296 233.897 950.979 231.565 952.308 229.192C953.637 226.819 955.261 225.033 957.18 223.834C959.115 222.606 961.207 221.981 963.457 221.958C965.708 221.935 967.977 222.564 970.267 223.847C972.556 225.129 974.279 226.736 975.434 228.667C976.59 230.598 977.15 232.708 977.114 234.999C977.094 237.262 976.419 239.58 975.09 241.953C973.761 244.326 972.129 246.126 970.194 247.353C968.26 248.58 966.167 249.205 963.917 249.229C961.682 249.224 959.42 248.581 957.131 247.298ZM959.829 242.482C961.392 243.358 962.943 243.438 964.481 242.722C966.034 241.979 967.421 240.518 968.641 238.34C969.86 236.163 970.374 234.231 970.181 232.546C970.003 230.833 969.133 229.538 967.569 228.663C966.006 227.787 964.447 227.721 962.894 228.464C961.356 229.18 959.977 230.627 958.757 232.804C957.538 234.982 957.016 236.928 957.194 238.641C957.387 240.326 958.265 241.607 959.829 242.482ZM978.083 264.642L1002.2 238.861L1006.22 245.349L988.902 262.966L1012.41 255.347L1015.78 260.774L998.507 278.472L1021.97 270.771L1025.99 277.259L992.187 287.411L988.042 280.719L1003.64 264.51L982.178 271.252L978.083 264.642ZM995.947 302.685C995.514 300.097 995.673 297.751 996.423 295.646C997.211 293.567 998.509 291.825 1000.32 290.419C1002.13 289.045 1004.38 288.133 1007.06 287.684C1009.75 287.235 1012.15 287.368 1014.28 288.082C1016.45 288.822 1018.25 290.047 1019.67 291.755C1021.09 293.464 1022.02 295.613 1022.45 298.201C1022.87 300.725 1022.69 303.011 1021.89 305.058C1021.1 307.105 1019.76 308.805 1017.88 310.159C1016 311.544 1013.65 312.474 1010.81 312.949L1009.38 313.187L1006.4 295.339C1004.39 295.772 1002.98 296.559 1002.17 297.701C1001.36 298.875 1001.09 300.283 1001.37 301.924C1001.57 303.123 1001.99 304.075 1002.62 304.78C1003.27 305.516 1004.14 305.97 1005.24 306.143L1006.01 313.363C1003.37 313.123 1001.16 312.048 999.385 310.14C997.605 308.231 996.459 305.746 995.947 302.685ZM1010.75 294.61L1012.52 305.167C1014.37 304.761 1015.67 304.008 1016.42 302.908C1017.19 301.839 1017.44 300.563 1017.2 299.08C1016.95 297.597 1016.25 296.448 1015.11 295.633C1014 294.845 1012.55 294.504 1010.75 294.61ZM995.691 328.722C995.935 326.947 996.53 325.446 997.474 324.219C998.414 323.024 999.615 322.156 1001.08 321.615L997.342 320.955L998.279 314.155L1032.04 318.805L1031.06 325.938L1019.17 324.301C1020.25 325.128 1021.1 326.246 1021.71 327.655C1022.36 329.068 1022.56 330.646 1022.32 332.39C1022.02 334.546 1021.21 336.34 1019.88 337.772C1018.59 339.208 1016.88 340.217 1014.77 340.798C1012.65 341.41 1010.24 341.531 1007.54 341.16C1004.85 340.789 1002.57 340.022 1000.69 338.859C998.811 337.728 997.426 336.294 996.535 334.556C995.675 332.822 995.394 330.878 995.691 328.722ZM1001.43 327.478C1001.22 329.063 1001.72 330.425 1002.95 331.564C1004.21 332.739 1006.08 333.497 1008.55 333.837C1011.03 334.178 1013.01 333.966 1014.5 333.203C1016.03 332.444 1016.9 331.272 1017.12 329.687C1017.28 328.514 1017.1 327.456 1016.59 326.513C1016.1 325.606 1015.3 324.849 1014.19 324.244C1013.07 323.67 1011.69 323.27 1010.04 323.043C1008.42 322.82 1007 322.834 1005.77 323.085C1004.54 323.367 1003.55 323.877 1002.8 324.614C1002.05 325.382 1001.59 326.337 1001.43 327.478ZM989.595 348.385C990.707 345.973 991.972 344.107 993.39 342.788C994.838 341.482 996.344 340.66 997.908 340.324C999.488 340.031 1001.07 340.181 1002.67 340.774L999.833 347.501C998.635 347.195 997.563 347.265 996.618 347.711C995.673 348.156 994.872 349.091 994.216 350.515C993.68 351.677 993.454 352.665 993.537 353.479C993.607 354.321 994.034 354.923 994.819 355.285C995.313 355.512 995.773 355.584 996.2 355.499C996.656 355.427 997.161 355.096 997.715 354.505C998.285 353.957 998.979 353.062 999.799 351.819C1001.37 349.549 1002.77 347.851 1004 346.724C1005.22 345.597 1006.43 344.957 1007.63 344.804C1008.83 344.652 1010.09 344.883 1011.43 345.5C1013.67 346.531 1015.08 348.219 1015.65 350.563C1016.24 352.949 1015.74 355.872 1014.15 359.33C1013.13 361.539 1011.93 363.224 1010.55 364.385C1009.16 365.574 1007.66 366.295 1006.07 366.546C1004.49 366.84 1002.88 366.733 1001.25 366.227L1004.02 359.524C1004.81 359.785 1005.56 359.847 1006.26 359.71C1006.97 359.616 1007.6 359.36 1008.14 358.941C1008.72 358.537 1009.19 357.942 1009.55 357.157C1010.08 355.995 1010.25 354.98 1010.05 354.113C1009.87 353.288 1009.38 352.695 1008.6 352.333C1008.02 352.066 1007.48 351.975 1006.98 352.063C1006.5 352.193 1005.99 352.524 1005.47 353.056C1004.94 353.588 1004.35 354.359 1003.71 355.367C1002.21 357.706 1000.81 359.454 999.499 360.613C998.205 361.813 996.946 362.519 995.722 362.73C994.497 362.941 993.202 362.732 991.836 362.102C990.324 361.406 989.247 360.38 988.602 359.026C987.958 357.672 987.721 356.083 987.892 354.26C988.05 352.465 988.617 350.507 989.595 348.385ZM984.687 359.722L1005.38 375.004L1001.11 380.797L980.41 365.514L984.687 359.722ZM1008.02 376.77L1012.65 380.192L1008.23 386.177L1003.6 382.756L1008.02 376.77ZM971.32 374.346C973.232 372.503 975.059 371.585 976.801 371.594C978.566 371.626 980.381 372.61 982.247 374.545L998.94 391.855L993.757 396.853L977.664 380.165C976.798 379.266 976.025 378.833 975.345 378.866C974.643 378.921 973.911 379.316 973.151 380.049L970.56 382.548L966.828 378.678L971.32 374.346ZM993.981 380.766L997.713 384.636L984.687 397.198L980.955 393.328L993.981 380.766ZM956.76 383.174C959.051 381.894 961.314 381.254 963.549 381.252C965.771 381.294 967.849 381.93 969.781 383.159C971.686 384.405 973.302 386.215 974.628 388.589C975.954 390.964 976.64 393.275 976.685 395.522C976.718 397.813 976.169 399.915 975.039 401.829C973.909 403.743 972.198 405.34 969.907 406.619C967.672 407.867 965.457 408.463 963.263 408.405C961.068 408.348 959.017 407.661 957.109 406.344C955.173 405.043 953.503 403.135 952.098 400.62L951.396 399.363L967.196 390.54C966.114 388.799 964.898 387.737 963.548 387.355C962.17 386.988 960.755 387.21 959.302 388.021C958.24 388.614 957.485 389.329 957.036 390.166C956.559 391.019 956.425 391.992 956.632 393.086L950.093 396.242C949.432 393.68 949.7 391.239 950.898 388.921C952.096 386.603 954.05 384.687 956.76 383.174ZM969.349 394.396L960.003 399.615C961.008 401.216 962.155 402.188 963.446 402.53C964.708 402.888 965.996 402.701 967.309 401.967C968.623 401.234 969.47 400.192 969.853 398.843C970.223 397.536 970.055 396.054 969.349 394.396Z" fill="white"/>
</g>
<line x1="0.00125" y1="583.5" x2="1200" y2="580.5" stroke="white"/>
<defs>
<clipPath id="clip0_0_1">
<rect width="1200" height="630" fill="white" transform="translate(0.00249999)"/>
</clipPath>
</defs>
</svg>
